<?xml version="1.0" standalone="no"?>
<!DOCTYPE svg PUBLIC "-//W3C//DTD SVG 20010904//EN"
 "http://www.w3.org/TR/2001/REC-SVG-20010904/DTD/svg10.dtd">
<svg version="1.0" xmlns="http://www.w3.org/2000/svg"
 width="1080.000000pt" height="1053.000000pt" viewBox="0 0 1080.000000 1053.000000"
 preserveAspectRatio="xMidYMid meet">

<g transform="translate(0.000000,1053.000000) scale(0.100000,-0.100000)"
fill="#000000" stroke="none">
<path d="M0 5265 l0 -5265 5400 0 5400 0 0 5265 0 5265 -5400 0 -5400 0 0
-5265z m5861 3804 c871 -110 1643 -489 2254 -1104 447 -450 785 -1022 958
-1620 50 -173 52 -156 -22 -177 -36 -10 -67 -16 -69 -14 -2 2 -21 66 -43 142
-136 467 -360 895 -677 1294 -103 129 -422 446 -557 554 -483 386 -1058 646
-1670 756 -184 33 -289 42 -560 47 -232 4 -323 2 -455 -12 -152 -15 -376 -52
-460 -75 -23 -6 -36 -6 -41 1 -10 18 -31 120 -25 126 22 23 419 88 626 103
192 13 549 4 741 -21z m-658 -1471 c16 -12 17 -42 15 -342 -3 -301 -5 -330
-20 -340 -13 -8 -23 -8 -35 0 -16 10 -18 39 -21 340 -2 300 -1 330 15 342 9 6
20 12 23 12 3 0 14 -6 23 -12z m-246 -292 c68 -62 92 -111 93 -189 0 -159
-136 -243 -262 -161 -102 65 -102 208 0 295 37 31 39 36 26 54 -18 25 -18 31
6 55 27 27 65 12 137 -54z m1072 28 c60 -65 91 -135 91 -209 -1 -166 -133
-255 -293 -195 -71 27 -94 51 -79 85 13 28 46 33 78 11 28 -20 87 -30 129 -22
77 15 100 127 46 221 -16 28 -38 59 -50 69 -35 32 -22 86 20 86 9 0 35 -20 58
-46z m-422 -137 c37 -39 63 -104 63 -157 0 -22 -10 -70 -22 -106 -40 -123
-147 -204 -270 -204 -42 0 -48 3 -54 25 -9 38 1 53 43 60 77 12 113 26 148 59
46 44 45 56 -7 56 -49 0 -99 26 -124 66 -36 54 -13 166 45 218 26 23 87 35
122 24 14 -5 39 -23 56 -41z m-3303 -411 c36 -51 58 -70 103 -93 56 -27 64
-28 218 -30 235 -2 320 -17 450 -77 438 -204 630 -791 406 -1245 -91 -185
-222 -312 -426 -414 -116 -58 -120 -58 -479 -55 l-329 3 27 32 c21 25 29 48
37 115 15 115 15 345 -1 658 -16 343 -11 603 13 647 24 46 22 60 -23 119 -22
30 -45 65 -50 79 -13 33 -13 325 -1 325 5 0 30 -29 55 -64z m5888 -121 c3 -3
-17 -28 -44 -56 -26 -27 -61 -69 -76 -92 l-27 -42 -3 -283 -3 -283 163 3 c162
2 164 2 210 -25 53 -31 124 -107 145 -156 21 -48 29 -207 23 -441 -7 -240 -15
-274 -80 -341 -50 -53 -118 -79 -202 -79 -49 0 -64 14 -28 25 77 24 91 608 17
701 -48 62 -135 64 -191 6 -46 -49 -56 -104 -56 -322 0 -236 -10 -283 -74
-346 -31 -32 -54 -44 -94 -53 -55 -12 -132 -15 -132 -6 0 3 12 16 26 28 26 22
27 27 35 193 6 108 5 327 -2 609 -6 242 -9 513 -6 603 6 152 8 167 34 220 32
65 86 108 160 128 47 12 195 19 205 9z m-1378 -793 c16 -18 50 -45 75 -60 45
-26 50 -27 220 -29 201 -1 229 -5 294 -41 109 -59 137 -136 137 -378 0 -173
-13 -302 -35 -344 -18 -33 -72 -84 -113 -105 -117 -58 -395 -59 -510 -1 -58
29 -75 48 -103 111 -44 100 -17 231 62 298 61 53 117 68 242 65 l108 -3 30 33
c30 33 37 66 18 78 -6 3 -57 8 -112 9 -215 6 -288 43 -358 179 -27 51 -31 71
-32 140 -1 45 3 92 7 106 l9 25 16 -25 c9 -13 29 -39 45 -58z m-1434 41 c0 -3
-16 -30 -36 -59 l-37 -53 -5 -158 c-5 -173 10 -385 32 -437 19 -47 52 -66 109
-66 62 0 103 24 130 75 19 37 21 58 22 270 2 255 9 289 68 353 38 40 121 72
187 72 l49 0 -32 -52 -32 -51 0 -286 c0 -316 3 -334 65 -366 38 -20 105 -19
140 1 58 35 65 66 66 309 0 121 4 236 8 255 22 100 100 167 223 190 95 18 195
4 150 -22 -47 -26 -88 -73 -108 -126 -21 -53 -23 -75 -25 -289 -2 -264 -13
-323 -64 -367 -32 -27 -87 -46 -132 -46 -22 0 -32 -10 -58 -55 -45 -79 -91
-108 -201 -126 -94 -15 -151 1 -227 66 l-65 56 -17 -29 c-82 -135 -364 -134
-474 2 -20 24 -39 62 -45 88 -16 70 -24 428 -13 559 12 146 33 189 118 247 50
34 204 68 204 45z m-1174 -49 c-20 -25 -39 -63 -43 -83 -5 -20 -8 -142 -8
-271 0 -226 1 -237 23 -282 41 -83 121 -115 196 -79 70 35 76 59 76 325 0 298
15 348 125 401 49 24 175 47 175 32 0 -3 -11 -22 -24 -42 -33 -49 -40 -151
-33 -538 5 -330 11 -373 53 -418 13 -14 24 -28 24 -32 0 -14 -117 -7 -165 10
-31 10 -65 33 -92 61 l-43 44 -46 -42 c-66 -61 -103 -74 -209 -74 -73 0 -100
4 -142 23 -60 27 -116 83 -131 132 -20 62 -32 225 -32 428 0 281 14 332 114
399 58 39 94 50 164 51 l53 1 -35 -46z m-2361 -1611 c111 -373 257 -693 458
-1001 547 -839 1418 -1424 2399 -1612 216 -41 332 -52 616 -57 373 -7 623 18
927 91 55 14 103 22 106 18 3 -4 13 -33 22 -65 18 -66 18 -65 -67 -86 -799
-195 -1658 -124 -2418 199 -975 416 -1739 1226 -2101 2230 -45 125 -97 297
-97 322 0 11 78 41 122 47 4 1 19 -38 33 -86z m1128 -30 c4 -2 7 -13 7 -25 0
-16 -5 -19 -24 -14 -14 3 -28 0 -35 -8 -8 -10 -3 -21 24 -49 45 -46 48 -95 9
-126 -27 -21 -52 -25 -91 -15 -17 5 -23 14 -23 36 0 25 2 27 19 18 60 -32 72
6 20 66 -40 47 -44 68 -16 103 22 27 75 34 110 14z m1195 1 c6 -2 12 -15 12
-30 0 -21 -4 -25 -17 -19 -50 19 -72 17 -97 -8 -47 -47 -24 -137 34 -137 17 0
20 7 20 45 0 45 0 45 35 45 l35 0 0 -64 c0 -58 -2 -64 -22 -70 -67 -18 -140 3
-177 50 -19 24 -22 38 -18 77 8 93 94 142 195 111z m370 7 c7 -1 12 -14 12
-32 0 -26 -3 -30 -17 -24 -44 19 -62 17 -87 -8 -47 -47 -24 -137 34 -137 17 0
20 7 20 45 0 44 0 45 34 45 l33 0 0 -64 -1 -65 -48 -6 c-61 -9 -110 8 -144 48
-22 27 -25 38 -21 80 7 76 72 130 147 121 14 -1 31 -3 38 -3z m-1323 -56 c3
-30 10 -57 14 -60 5 -2 15 22 22 55 11 51 16 60 35 60 18 0 24 -9 34 -52 20
-84 26 -86 40 -14 l12 66 35 0 c28 0 33 -3 29 -17 -9 -28 -46 -165 -52 -195
-6 -26 -33 -41 -51 -29 -6 3 -18 30 -27 59 -10 28 -19 52 -21 52 -2 0 -11 -24
-19 -54 -13 -43 -21 -55 -41 -58 -17 -4 -26 0 -29 11 -3 9 -16 57 -30 107 -14
50 -28 98 -32 107 -5 14 1 17 34 17 l40 0 7 -55z m558 -63 c26 -64 47 -120 47
-122 0 -3 -14 -6 -32 -5 -28 0 -34 5 -42 33 -8 30 -12 32 -51 32 -39 0 -43 -2
-48 -30 -6 -29 -43 -50 -65 -36 -6 3 13 59 41 126 46 110 53 120 77 120 24 0
29 -10 73 -118z m1030 82 c19 -39 29 -38 47 6 10 25 18 30 46 30 32 0 45 -12
25 -24 -5 -3 -23 -31 -41 -62 -26 -47 -31 -65 -28 -108 l3 -51 -34 1 -35 0 3
56 c2 48 -2 63 -33 114 -20 32 -36 62 -36 67 0 4 15 7 33 7 28 0 36 -5 50 -36z
m1375 14 c-2 -18 -10 -23 -32 -23 l-30 0 2 -96 c2 -103 -3 -111 -50 -101 -16
3 -18 16 -18 104 l0 101 -36 -6 c-29 -5 -35 -3 -30 9 3 9 6 20 6 25 0 5 43 9
96 9 93 0 95 -1 92 -22z m295 11 c12 -7 25 -17 29 -23 15 -21 8 -66 -12 -83
-11 -10 -20 -21 -20 -24 0 -4 16 -28 35 -53 36 -48 36 -55 -5 -51 -16 1 -35
16 -55 43 -16 22 -34 41 -38 41 -5 1 -5 -19 -1 -44 l6 -45 -36 2 -36 3 0 123
0 122 56 0 c30 0 65 -5 77 -11z m367 4 c-1 -21 -22 -38 -47 -38 -23 0 -28 -4
-28 -25 0 -21 5 -26 33 -28 17 -2 32 -6 32 -10 -1 -18 -22 -37 -42 -37 -18 0
-24 -6 -26 -27 -4 -31 15 -36 62 -18 30 11 35 -4 12 -35 -11 -15 -27 -19 -75
-19 l-61 -1 0 122 0 123 70 0 c39 0 70 -3 70 -7z m272 -36 c15 -23 37 -53 49
-67 l20 -25 -3 68 -4 67 33 0 33 0 0 -115 c0 -63 0 -118 0 -122 0 -7 -14 -8
-52 -4 -7 1 -31 29 -53 63 -43 67 -50 64 -43 -18 2 -30 -1 -44 -9 -45 -60 -5
-56 -13 -54 103 1 66 -2 109 -8 113 -22 13 -10 25 27 25 33 0 40 -5 64 -43z
m458 25 c45 -22 73 -75 65 -121 -13 -72 -56 -101 -149 -104 l-56 -2 0 123 0
122 53 0 c29 0 67 -8 87 -18z m297 -17 c9 -19 19 -35 23 -35 3 0 14 16 24 35
16 29 25 35 52 35 l33 0 -39 -62 c-34 -55 -40 -71 -40 -120 0 -55 -1 -58 -25
-58 -39 0 -40 2 -37 47 3 35 -4 57 -37 118 l-40 75 35 0 c29 0 37 -5 51 -35z
m-2417 -20 c7 -9 10 -27 7 -44 -4 -21 -2 -31 9 -35 26 -10 31 -7 37 20 3 20 0
28 -14 31 -11 3 -19 14 -19 24 0 17 8 19 60 19 53 0 60 -2 60 -20 0 -11 -7
-20 -15 -20 -13 0 -35 -55 -35 -92 0 -9 14 -22 30 -30 17 -7 30 -16 30 -20 0
-14 -52 -20 -74 -9 -17 10 -28 9 -51 -3 -37 -20 -66 -20 -110 -2 -39 16 -56
57 -36 87 6 10 11 30 11 45 0 46 17 64 59 64 22 0 44 -6 51 -15z m-1190 -776
c0 -27 -2 -30 -22 -23 -59 20 -95 0 -104 -57 -8 -49 27 -93 70 -86 17 2 39 7
49 12 14 6 17 2 17 -19 0 -19 -7 -29 -26 -36 -135 -52 -240 105 -138 208 29
29 38 32 93 32 l61 0 0 -31z m250 -69 c0 -108 2 -110 54 -90 30 11 30 10 14
-25 -10 -23 -16 -25 -75 -25 l-63 0 0 120 0 120 35 0 35 0 0 -100z m430 85
c37 -19 60 -63 60 -115 0 -32 -7 -48 -34 -78 -33 -35 -38 -37 -95 -37 -55 0
-64 3 -92 31 -58 59 -46 168 23 202 34 16 105 14 138 -3z m406 -1 c-3 -9 -6
-20 -6 -26 0 -6 -12 -8 -31 -4 l-31 6 4 -100 3 -100 -35 0 -35 0 3 99 3 100
-37 -6 c-33 -5 -37 -4 -31 11 4 10 7 22 7 27 0 5 43 9 96 9 84 0 95 -2 90 -16z
m234 -35 l0 -50 33 3 c31 3 32 4 31 51 l0 47 35 0 36 0 -2 -122 -2 -122 -33
-1 c-33 0 -33 0 -33 50 0 49 0 49 -32 51 -33 2 -33 2 -33 -47 l0 -49 -35 0
-35 0 0 120 0 120 35 0 35 0 0 -51z m390 -68 l0 -119 -35 -4 -35 -4 0 123 0
123 35 0 35 0 0 -119z m289 54 c24 -36 45 -65 48 -65 2 0 3 28 2 63 l-3 62 33
0 32 0 2 -118 2 -117 -35 0 c-32 0 -39 6 -74 60 -21 33 -40 60 -43 60 -3 0 -3
-27 -1 -60 l4 -60 -33 0 -33 0 0 102 c0 80 -3 105 -17 120 -15 17 -14 18 29
18 43 0 45 -1 87 -65z m491 35 c0 -28 -2 -30 -25 -24 -56 14 -80 8 -93 -21
-27 -58 -1 -125 48 -125 17 0 20 7 20 46 0 45 0 45 32 42 l33 -3 0 -62 c0 -60
-1 -62 -29 -67 -77 -16 -146 7 -171 55 -8 15 -15 47 -15 70 0 35 6 48 39 80
36 37 42 39 100 39 l61 0 0 -30z"/>
<path d="M4861 7198 c-37 -24 -72 -89 -64 -119 8 -28 61 -69 89 -69 32 0 72
43 80 86 8 41 -29 124 -54 124 -10 0 -32 -10 -51 -22z"/>
<path d="M5476 7127 c-43 -57 -29 -107 30 -107 75 0 94 38 51 101 -31 45 -50
47 -81 6z"/>
<path d="M2577 6353 c-4 -3 -7 -271 -7 -595 l0 -588 154 0 154 0 84 43 c112
57 185 130 236 239 55 115 67 172 66 313 -1 103 -5 132 -29 203 -75 223 -221
355 -418 382 -88 11 -230 13 -240 3z"/>
<path d="M6973 5215 c-45 -32 -38 -137 12 -169 31 -20 48 -20 92 1 98 46 69
183 -39 183 -24 0 -53 -7 -65 -15z"/>
<path d="M3686 4135 c-10 -28 -7 -45 9 -45 16 0 20 27 6 48 -7 11 -10 10 -15
-3z"/>
<path d="M6409 4188 c-6 -18 -6 -59 0 -62 4 -3 17 1 27 9 15 11 17 18 8 31 -9
16 -32 30 -35 22z"/>
<path d="M7498 4115 c-3 -83 6 -96 44 -66 32 27 32 96 -1 122 -13 10 -27 19
-31 19 -5 0 -10 -34 -12 -75z"/>
<path d="M5384 4149 c-10 -17 13 -36 27 -22 12 12 4 33 -11 33 -5 0 -12 -5
-16 -11z"/>
<path d="M5383 4064 c-7 -19 13 -34 44 -34 36 0 35 16 -3 33 -32 16 -35 16
-41 1z"/>
<path d="M4831 3381 c-7 -5 -15 -29 -18 -54 -5 -39 -2 -49 20 -71 28 -28 65
-34 85 -14 18 18 15 93 -5 116 -21 23 -62 35 -82 23z"/>
</g>
</svg>
